<svg width="51" height="52" xmlns="http://www.w3.org/2000/svg" xmlns:xlink="http://www.w3.org/1999/xlink" xml:space="preserve" overflow="hidden"><g transform="translate(-814 -404)"><path d="M29.0934 29.3781C29.6916 29.9594 29.7054 30.9156 29.1241 31.5139 29.114 31.5242 29.1037 31.5345 29.0934 31.5446L26.4998 32.3988 26.0424 31.9414 26.8967 29.3478C27.516 28.7608 28.4904 28.7743 29.0934 29.3781ZM40.8127 13.7227 25.8315 28.7374 23.9062 34.535 29.7341 32.6124 44.7185 17.6311Z" fill="#A6A6A6" transform="matrix(1 0 0 1.01961 814 404)"/><path d="M47.9814 12.6262 45.815 10.4598C45.3456 9.97948 44.5757 9.97066 44.0954 10.4401 44.0888 10.4466 44.0822 10.4531 44.0757 10.4598L41.9395 12.5959 45.815 16.4688 47.9506 14.3331C48.4298 13.9116 48.4764 13.1815 48.0549 12.7024 48.0316 12.6759 48.0071 12.6504 47.9814 12.6262Z" fill="#A6A6A6" transform="matrix(1 0 0 1.01961 814 404)"/><path d="M13.8125 34.5312 22.2286 34.5312 22.933 32.4062 13.8125 32.4062 13.8125 34.5312Z" fill="#A6A6A6" transform="matrix(1 0 0 1.01961 814 404)"/><path d="M13.8125 21.7812 30.5193 21.7812 32.64 19.6562 13.8125 19.6562 13.8125 21.7812Z" fill="#A6A6A6" transform="matrix(1 0 0 1.01961 814 404)"/><path d="M37.1875 27.4125 37.1875 43.5625 10.625 43.5625 10.625 10.625 16.4688 10.625 16.4688 13.8125 31.3438 13.8125 31.3438 10.625 37.1875 10.625 37.1875 15.0992 39.6844 12.5959 39.6844 12.5959 39.7752 12.5051 40.375 11.9053 40.375 9.5625C40.375 8.38892 39.4236 7.4375 38.25 7.4375L29.2188 7.4375 29.2188 6.375C29.2188 5.20139 28.2673 4.25 27.0938 4.25L20.7188 4.25C19.5452 4.25 18.5938 5.20139 18.5938 6.375L18.5938 7.4375 9.5625 7.4375C8.38892 7.4375 7.4375 8.38892 7.4375 9.5625L7.4375 44.625C7.4375 45.7986 8.38892 46.75 9.5625 46.75L38.25 46.75C39.4236 46.75 40.375 45.7986 40.375 44.625L40.375 24.225ZM22.7715 6.834C23.0717 6.53326 23.4814 6.36756 23.9062 6.375 24.7865 6.375 25.5 7.08852 25.5 7.96875 25.5 8.84898 24.7865 9.5625 23.9062 9.5625 23.026 9.5625 22.3125 8.84898 22.3125 7.96875 22.3051 7.54386 22.4708 7.13421 22.7715 6.834Z" fill="#A6A6A6" transform="matrix(1 0 0 1.01961 814 404)"/><path d="M13.8125 28.1562 24.1443 28.1562 26.265 26.0312 13.8125 26.0312 13.8125 28.1562Z" fill="#A6A6A6" transform="matrix(1 0 0 1.01961 814 404)"/></g></svg>