<svg width="51" height="51" xmlns="http://www.w3.org/2000/svg" xmlns:xlink="http://www.w3.org/1999/xlink" xml:space="preserve" overflow="hidden"><g transform="translate(-814 -335)"><path d="M843.093 364.378C843.692 364.959 843.705 365.916 843.124 366.514 843.114 366.524 843.104 366.534 843.093 366.545L840.5 367.399 840.042 366.941 840.897 364.348C841.516 363.761 842.49 363.774 843.093 364.378ZM854.813 348.723 839.831 363.737 837.906 369.535 843.734 367.612 858.719 352.631Z"/><path d="M861.981 347.626 859.815 345.46C859.346 344.979 858.576 344.971 858.095 345.44 858.089 345.447 858.082 345.453 858.076 345.46L855.94 347.596 859.815 351.469 861.951 349.333C862.43 348.912 862.476 348.181 862.055 347.702 862.032 347.676 862.007 347.65 861.981 347.626Z"/><path d="M827.812 369.531 836.229 369.531 836.933 367.406 827.812 367.406 827.812 369.531Z"/><path d="M827.812 356.781 844.519 356.781 846.64 354.656 827.812 354.656 827.812 356.781Z"/><path d="M851.188 362.413 851.188 378.562 824.625 378.562 824.625 345.625 830.469 345.625 830.469 348.812 845.344 348.812 845.344 345.625 851.188 345.625 851.188 350.099 853.684 347.596 853.684 347.596 853.775 347.505 854.375 346.905 854.375 344.562C854.375 343.389 853.424 342.438 852.25 342.438L843.219 342.438 843.219 341.375C843.219 340.201 842.267 339.25 841.094 339.25L834.719 339.25C833.545 339.25 832.594 340.201 832.594 341.375L832.594 342.438 823.562 342.438C822.389 342.438 821.438 343.389 821.438 344.562L821.438 379.625C821.438 380.799 822.389 381.75 823.562 381.75L852.25 381.75C853.424 381.75 854.375 380.799 854.375 379.625L854.375 359.225ZM836.771 341.834C837.072 341.533 837.481 341.368 837.906 341.375 838.786 341.375 839.5 342.089 839.5 342.969 839.5 343.849 838.786 344.562 837.906 344.562 837.026 344.562 836.312 343.849 836.312 342.969 836.305 342.544 836.471 342.134 836.771 341.834Z"/><path d="M827.812 363.156 838.144 363.156 840.265 361.031 827.812 361.031 827.812 363.156Z"/></g></svg>